<mxfile host="app.diagrams.net" modified="2024-06-13T14:20:43.501Z" agent="Mozilla/5.0 (Windows NT 10.0; Win64; x64) AppleWebKit/537.36 (KHTML, like Gecko) Chrome/121.0.0.0 Safari/537.36" etag="H2IgmZxu6_rCWxd1KS8q" version="24.5.4" type="device">
  <diagram name="PÃ¡gina-1" id="irgvhzZaq6-zG55fmrVL">
    <mxGraphModel dx="1434" dy="782" grid="1" gridSize="10" guides="1" tooltips="1" connect="1" arrows="1" fold="1" page="1" pageScale="1" pageWidth="827" pageHeight="1169" math="0" shadow="0">
      <root>
        <mxCell id="0" />
        <mxCell id="1" parent="0" />
        <mxCell id="VEUq_RC-aavcs4L_vAxr-1" value="" style="rounded=1;whiteSpace=wrap;html=1;movable=0;resizable=0;rotatable=0;deletable=0;editable=0;locked=1;connectable=0;fillColor=#FFFF00;strokeColor=#00FFFF;" vertex="1" parent="1">
          <mxGeometry x="135" y="80" width="260" height="460" as="geometry" />
        </mxCell>
        <mxCell id="VEUq_RC-aavcs4L_vAxr-2" value="&lt;font color=&quot;#0000cc&quot; style=&quot;font-size: 24px;&quot;&gt;&lt;b style=&quot;&quot;&gt;Compra de Estoque&lt;/b&gt;&lt;/font&gt;" style="text;html=1;align=center;verticalAlign=middle;whiteSpace=wrap;rounded=0;" vertex="1" parent="1">
          <mxGeometry x="190" y="100" width="150" height="30" as="geometry" />
        </mxCell>
        <mxCell id="VEUq_RC-aavcs4L_vAxr-4" value="" style="rounded=0;whiteSpace=wrap;html=1;" vertex="1" parent="1">
          <mxGeometry x="210" y="160" width="130" height="20" as="geometry" />
        </mxCell>
        <mxCell id="VEUq_RC-aavcs4L_vAxr-5" value="&lt;font style=&quot;font-size: 14px;&quot;&gt;&lt;b&gt;Qt.&lt;/b&gt;&lt;/font&gt;" style="text;html=1;align=center;verticalAlign=middle;whiteSpace=wrap;rounded=0;" vertex="1" parent="1">
          <mxGeometry x="150" y="155" width="60" height="30" as="geometry" />
        </mxCell>
        <mxCell id="VEUq_RC-aavcs4L_vAxr-6" value="" style="rounded=0;whiteSpace=wrap;html=1;" vertex="1" parent="1">
          <mxGeometry x="210" y="220" width="130" height="20" as="geometry" />
        </mxCell>
        <mxCell id="VEUq_RC-aavcs4L_vAxr-7" value="&lt;font style=&quot;font-size: 14px;&quot;&gt;&lt;b&gt;Tecido&lt;/b&gt;&lt;/font&gt;" style="text;html=1;align=center;verticalAlign=middle;whiteSpace=wrap;rounded=0;" vertex="1" parent="1">
          <mxGeometry x="150" y="215" width="60" height="30" as="geometry" />
        </mxCell>
        <mxCell id="VEUq_RC-aavcs4L_vAxr-8" value="" style="rounded=0;whiteSpace=wrap;html=1;" vertex="1" parent="1">
          <mxGeometry x="210" y="280" width="130" height="20" as="geometry" />
        </mxCell>
        <mxCell id="VEUq_RC-aavcs4L_vAxr-9" value="&lt;font style=&quot;font-size: 14px;&quot;&gt;&lt;b&gt;Local&lt;/b&gt;&lt;/font&gt;" style="text;html=1;align=center;verticalAlign=middle;whiteSpace=wrap;rounded=0;" vertex="1" parent="1">
          <mxGeometry x="150" y="275" width="60" height="30" as="geometry" />
        </mxCell>
        <mxCell id="VEUq_RC-aavcs4L_vAxr-10" value="&lt;font color=&quot;#ffffff&quot;&gt;Comprar Agora&lt;/font&gt;" style="rounded=1;whiteSpace=wrap;html=1;fillColor=#0000CC;" vertex="1" parent="1">
          <mxGeometry x="210" y="370" width="110" height="40" as="geometry" />
        </mxCell>
        <mxCell id="VEUq_RC-aavcs4L_vAxr-11" value="&lt;font color=&quot;#ffffff&quot;&gt;Voltar&lt;/font&gt;" style="rounded=1;whiteSpace=wrap;html=1;fillColor=#0000CC;" vertex="1" parent="1">
          <mxGeometry x="210" y="430" width="110" height="40" as="geometry" />
        </mxCell>
        <mxCell id="VEUq_RC-aavcs4L_vAxr-12" value="&lt;b&gt;&lt;font style=&quot;font-size: 14px;&quot;&gt;Frete:&lt;/font&gt;&lt;/b&gt;" style="text;html=1;align=center;verticalAlign=middle;whiteSpace=wrap;rounded=0;" vertex="1" parent="1">
          <mxGeometry x="170" y="320" width="60" height="30" as="geometry" />
        </mxCell>
        <mxCell id="VEUq_RC-aavcs4L_vAxr-14" value="" style="rounded=1;whiteSpace=wrap;html=1;movable=1;resizable=1;rotatable=1;deletable=1;editable=1;locked=0;connectable=1;fillColor=#FFFF00;strokeColor=#00FFFF;" vertex="1" parent="1">
          <mxGeometry x="460" y="80" width="260" height="460" as="geometry" />
        </mxCell>
      </root>
    </mxGraphModel>
  </diagram>
</mxfile>
